<svg xmlns="http://www.w3.org/2000/svg" xmlns:xlink="http://www.w3.org/1999/xlink" width="500" zoomAndPan="magnify" viewBox="0 0 375 374.999991" height="500" preserveAspectRatio="xMidYMid meet" version="1.0"><defs><g/><clipPath id="id1"><path d="M 59 222 L 168 222 L 168 259 L 59 259 Z M 59 222 " clip-rule="nonzero"/></clipPath><clipPath id="id2"><path d="M 68.734375 101.914062 L 205.277344 137.089844 L 170.285156 272.90625 L 33.742188 237.726562 Z M 68.734375 101.914062 " clip-rule="nonzero"/></clipPath><clipPath id="id3"><path d="M 68.734375 101.914062 L 205.277344 137.089844 L 170.285156 272.90625 L 33.742188 237.726562 Z M 68.734375 101.914062 " clip-rule="nonzero"/></clipPath><clipPath id="id4"><path d="M 48 131 L 76 131 L 76 200 L 48 200 Z M 48 131 " clip-rule="nonzero"/></clipPath><clipPath id="id5"><path d="M 68.734375 101.914062 L 205.277344 137.089844 L 170.285156 272.90625 L 33.742188 237.726562 Z M 68.734375 101.914062 " clip-rule="nonzero"/></clipPath><clipPath id="id6"><path d="M 68.734375 101.914062 L 205.277344 137.089844 L 170.285156 272.90625 L 33.742188 237.726562 Z M 68.734375 101.914062 " clip-rule="nonzero"/></clipPath><clipPath id="id7"><path d="M 163 134 L 185 134 L 185 163 L 163 163 Z M 163 134 " clip-rule="nonzero"/></clipPath><clipPath id="id8"><path d="M 68.734375 101.914062 L 205.277344 137.089844 L 170.285156 272.90625 L 33.742188 237.726562 Z M 68.734375 101.914062 " clip-rule="nonzero"/></clipPath><clipPath id="id9"><path d="M 68.734375 101.914062 L 205.277344 137.089844 L 170.285156 272.90625 L 33.742188 237.726562 Z M 68.734375 101.914062 " clip-rule="nonzero"/></clipPath><clipPath id="id10"><path d="M 125 202 L 188 202 L 188 254 L 125 254 Z M 125 202 " clip-rule="nonzero"/></clipPath><clipPath id="id11"><path d="M 68.734375 101.914062 L 205.277344 137.089844 L 170.285156 272.90625 L 33.742188 237.726562 Z M 68.734375 101.914062 " clip-rule="nonzero"/></clipPath><clipPath id="id12"><path d="M 68.734375 101.914062 L 205.277344 137.089844 L 170.285156 272.90625 L 33.742188 237.726562 Z M 68.734375 101.914062 " clip-rule="nonzero"/></clipPath><clipPath id="id13"><path d="M 54 118 L 137 118 L 137 230 L 54 230 Z M 54 118 " clip-rule="nonzero"/></clipPath><clipPath id="id14"><path d="M 68.734375 101.914062 L 205.277344 137.089844 L 170.285156 272.90625 L 33.742188 237.726562 Z M 68.734375 101.914062 " clip-rule="nonzero"/></clipPath><clipPath id="id15"><path d="M 68.734375 101.914062 L 205.277344 137.089844 L 170.285156 272.90625 L 33.742188 237.726562 Z M 68.734375 101.914062 " clip-rule="nonzero"/></clipPath><clipPath id="id16"><path d="M 60 200 L 176 200 L 176 248 L 60 248 Z M 60 200 " clip-rule="nonzero"/></clipPath><clipPath id="id17"><path d="M 68.734375 101.914062 L 205.277344 137.089844 L 170.285156 272.90625 L 33.742188 237.726562 Z M 68.734375 101.914062 " clip-rule="nonzero"/></clipPath><clipPath id="id18"><path d="M 68.734375 101.914062 L 205.277344 137.089844 L 170.285156 272.90625 L 33.742188 237.726562 Z M 68.734375 101.914062 " clip-rule="nonzero"/></clipPath><clipPath id="id19"><path d="M 60 124 L 137 124 L 137 173 L 60 173 Z M 60 124 " clip-rule="nonzero"/></clipPath><clipPath id="id20"><path d="M 68.734375 101.914062 L 205.277344 137.089844 L 170.285156 272.90625 L 33.742188 237.726562 Z M 68.734375 101.914062 " clip-rule="nonzero"/></clipPath><clipPath id="id21"><path d="M 68.734375 101.914062 L 205.277344 137.089844 L 170.285156 272.90625 L 33.742188 237.726562 Z M 68.734375 101.914062 " clip-rule="nonzero"/></clipPath><clipPath id="id22"><path d="M 84 129 L 173 129 L 173 161 L 84 161 Z M 84 129 " clip-rule="nonzero"/></clipPath><clipPath id="id23"><path d="M 68.734375 101.914062 L 205.277344 137.089844 L 170.285156 272.90625 L 33.742188 237.726562 Z M 68.734375 101.914062 " clip-rule="nonzero"/></clipPath><clipPath id="id24"><path d="M 68.734375 101.914062 L 205.277344 137.089844 L 170.285156 272.90625 L 33.742188 237.726562 Z M 68.734375 101.914062 " clip-rule="nonzero"/></clipPath><clipPath id="id25"><path d="M 69 134 L 114 134 L 114 238 L 69 238 Z M 69 134 " clip-rule="nonzero"/></clipPath><clipPath id="id26"><path d="M 68.734375 101.914062 L 205.277344 137.089844 L 170.285156 272.90625 L 33.742188 237.726562 Z M 68.734375 101.914062 " clip-rule="nonzero"/></clipPath><clipPath id="id27"><path d="M 68.734375 101.914062 L 205.277344 137.089844 L 170.285156 272.90625 L 33.742188 237.726562 Z M 68.734375 101.914062 " clip-rule="nonzero"/></clipPath><clipPath id="id28"><path d="M 74 139 L 147 139 L 147 197 L 74 197 Z M 74 139 " clip-rule="nonzero"/></clipPath><clipPath id="id29"><path d="M 68.734375 101.914062 L 205.277344 137.089844 L 170.285156 272.90625 L 33.742188 237.726562 Z M 68.734375 101.914062 " clip-rule="nonzero"/></clipPath><clipPath id="id30"><path d="M 68.734375 101.914062 L 205.277344 137.089844 L 170.285156 272.90625 L 33.742188 237.726562 Z M 68.734375 101.914062 " clip-rule="nonzero"/></clipPath><clipPath id="id31"><path d="M 80 144 L 146 144 L 146 228 L 80 228 Z M 80 144 " clip-rule="nonzero"/></clipPath><clipPath id="id32"><path d="M 68.734375 101.914062 L 205.277344 137.089844 L 170.285156 272.90625 L 33.742188 237.726562 Z M 68.734375 101.914062 " clip-rule="nonzero"/></clipPath><clipPath id="id33"><path d="M 68.734375 101.914062 L 205.277344 137.089844 L 170.285156 272.90625 L 33.742188 237.726562 Z M 68.734375 101.914062 " clip-rule="nonzero"/></clipPath><clipPath id="id34"><path d="M 126 194 L 158 194 L 158 223 L 126 223 Z M 126 194 " clip-rule="nonzero"/></clipPath><clipPath id="id35"><path d="M 68.734375 101.914062 L 205.277344 137.089844 L 170.285156 272.90625 L 33.742188 237.726562 Z M 68.734375 101.914062 " clip-rule="nonzero"/></clipPath><clipPath id="id36"><path d="M 68.734375 101.914062 L 205.277344 137.089844 L 170.285156 272.90625 L 33.742188 237.726562 Z M 68.734375 101.914062 " clip-rule="nonzero"/></clipPath><clipPath id="id37"><path d="M 84 178 L 105 178 L 105 218 L 84 218 Z M 84 178 " clip-rule="nonzero"/></clipPath><clipPath id="id38"><path d="M 68.734375 101.914062 L 205.277344 137.089844 L 170.285156 272.90625 L 33.742188 237.726562 Z M 68.734375 101.914062 " clip-rule="nonzero"/></clipPath><clipPath id="id39"><path d="M 68.734375 101.914062 L 205.277344 137.089844 L 170.285156 272.90625 L 33.742188 237.726562 Z M 68.734375 101.914062 " clip-rule="nonzero"/></clipPath></defs><g clip-path="url(#id1)"><g clip-path="url(#id2)"><g clip-path="url(#id3)"><path fill="#3900aa" d="M 163.253906 240.972656 C 163.265625 240.964844 163.285156 240.949219 163.308594 240.933594 C 163.285156 240.949219 163.265625 240.960938 163.253906 240.972656 Z M 163.152344 243.703125 C 162.441406 242.800781 162.59375 241.492188 163.5 240.78125 C 163.453125 240.816406 163.410156 240.847656 163.371094 240.878906 C 163.40625 240.851562 163.449219 240.820312 163.5 240.78125 C 163.65625 240.65625 163.730469 240.597656 163.75 240.582031 C 163.722656 240.605469 163.613281 240.691406 163.5 240.78125 C 164.402344 240.070312 165.714844 240.226562 166.425781 241.128906 C 167.136719 242.03125 166.984375 243.34375 166.078125 244.050781 C 165.179688 244.761719 163.863281 244.605469 163.152344 243.703125 Z M 60.792969 222.503906 C 59.671875 223.214844 59.339844 224.695312 60.050781 225.816406 C 60.5625 226.628906 61.484375 227.023438 62.378906 226.914062 C 72.257812 241.203125 86.847656 251.40625 103.707031 255.75 C 114.597656 258.554688 125.667969 258.800781 136.613281 256.480469 C 146.179688 254.453125 155.386719 250.414062 163.40625 244.753906 C 164.347656 245.308594 165.570312 245.265625 166.476562 244.554688 C 167.65625 243.625 167.859375 241.914062 166.929688 240.734375 C 166 239.554688 164.28125 239.351562 163.101562 240.277344 C 162.246094 240.953125 161.90625 242.046875 162.140625 243.042969 C 145.261719 254.976562 124.308594 258.859375 104.238281 253.6875 C 87.890625 249.476562 73.742188 239.589844 64.15625 225.742188 C 64.59375 224.992188 64.609375 224.03125 64.113281 223.25 C 63.402344 222.128906 61.914062 221.792969 60.792969 222.503906 " fill-opacity="1" fill-rule="nonzero"/></g></g></g><g clip-path="url(#id4)"><g clip-path="url(#id5)"><g clip-path="url(#id6)"><path fill="#3900aa" d="M 53.617188 197.0625 C 53.617188 197.050781 53.613281 197.03125 53.605469 197.003906 C 53.613281 197.035156 53.617188 197.054688 53.617188 197.0625 Z M 53.527344 196.550781 C 53.503906 196.40625 53.492188 196.34375 53.527344 196.550781 Z M 51.15625 195.042969 C 52.289062 194.847656 53.367188 195.613281 53.5625 196.746094 C 53.757812 197.875 52.992188 198.953125 51.859375 199.148438 C 50.726562 199.339844 49.648438 198.578125 49.453125 197.445312 C 49.257812 196.3125 50.019531 195.238281 51.15625 195.042969 Z M 74.523438 136.121094 C 75.507812 135.230469 75.578125 133.710938 74.683594 132.730469 C 73.789062 131.75 72.265625 131.679688 71.285156 132.570312 C 70.570312 133.222656 70.339844 134.210938 70.617188 135.078125 C 61.515625 144.152344 55.03125 155.484375 51.808594 167.988281 C 49.535156 176.820312 48.957031 185.820312 50.082031 194.777344 C 49.164062 195.34375 48.628906 196.425781 48.824219 197.554688 C 49.078125 199.035156 50.488281 200.03125 51.96875 199.777344 C 53.449219 199.523438 54.449219 198.113281 54.191406 196.636719 C 54.003906 195.550781 53.195312 194.726562 52.191406 194.464844 C 51.109375 185.789062 51.667969 177.074219 53.875 168.519531 C 56.996094 156.398438 63.28125 145.410156 72.097656 136.609375 C 72.910156 136.898438 73.847656 136.742188 74.523438 136.121094 " fill-opacity="1" fill-rule="nonzero"/></g></g></g><g clip-path="url(#id7)"><g clip-path="url(#id8)"><g clip-path="url(#id9)"><path fill="#3900aa" d="M 164.589844 138.777344 C 164.609375 138.792969 164.613281 138.796875 164.589844 138.777344 Z M 164.578125 138.769531 C 164.566406 138.753906 164.546875 138.738281 164.523438 138.71875 C 164.546875 138.738281 164.566406 138.753906 164.578125 138.769531 Z M 167.089844 135.429688 C 167.957031 136.183594 168.050781 137.5 167.296875 138.367188 C 166.542969 139.234375 165.222656 139.328125 164.355469 138.574219 C 163.488281 137.820312 163.394531 136.503906 164.148438 135.636719 C 164.902344 134.769531 166.21875 134.675781 167.089844 135.429688 Z M 184.3125 158.742188 C 183.9375 157.84375 183.082031 157.296875 182.167969 157.269531 C 178.730469 150.082031 173.980469 143.476562 168.28125 137.933594 C 168.652344 136.90625 168.382812 135.707031 167.507812 134.949219 C 166.371094 133.964844 164.648438 134.085938 163.664062 135.21875 C 162.679688 136.351562 162.804688 138.070312 163.9375 139.054688 C 164.757812 139.769531 165.886719 139.898438 166.824219 139.488281 C 172.324219 144.839844 176.90625 151.21875 180.230469 158.152344 C 179.691406 158.816406 179.523438 159.746094 179.878906 160.59375 C 180.390625 161.816406 181.800781 162.394531 183.027344 161.882812 C 184.25 161.371094 184.828125 159.964844 184.3125 158.742188 " fill-opacity="1" fill-rule="nonzero"/></g></g></g><g clip-path="url(#id10)"><g clip-path="url(#id11)"><g clip-path="url(#id12)"><path fill="#3900aa" d="M 182.761719 204.742188 C 182.753906 204.769531 182.746094 204.792969 182.742188 204.808594 C 182.746094 204.792969 182.75 204.773438 182.761719 204.742188 Z M 182.914062 204.191406 C 182.914062 204.1875 182.914062 204.1875 182.914062 204.191406 Z M 185.394531 203.0625 C 186.5 203.375 187.152344 204.523438 186.839844 205.628906 C 186.53125 206.734375 185.378906 207.382812 184.273438 207.074219 C 183.167969 206.765625 182.515625 205.613281 182.824219 204.507812 C 182.800781 204.59375 182.78125 204.675781 182.761719 204.734375 C 182.773438 204.683594 182.796875 204.609375 182.824219 204.507812 C 182.871094 204.34375 182.898438 204.253906 182.90625 204.214844 C 182.890625 204.265625 182.859375 204.386719 182.824219 204.507812 C 183.136719 203.402344 184.289062 202.753906 185.394531 203.0625 Z M 187.457031 205.800781 C 187.863281 204.359375 187.011719 202.851562 185.566406 202.449219 C 184.121094 202.042969 182.613281 202.890625 182.210938 204.335938 C 181.917969 205.378906 182.28125 206.453125 183.050781 207.121094 C 175.042969 230.449219 154.648438 247.074219 130.082031 250.261719 C 129.617188 249.539062 128.78125 249.09375 127.867188 249.164062 C 126.542969 249.269531 125.558594 250.429688 125.664062 251.75 C 125.769531 253.074219 126.929688 254.058594 128.253906 253.953125 C 129.222656 253.875 130.007812 253.234375 130.320312 252.375 C 142.613281 250.78125 154.179688 245.832031 163.898438 237.980469 C 173.726562 230.050781 181.007812 219.644531 185.082031 207.773438 C 186.171875 207.675781 187.144531 206.917969 187.457031 205.800781 C 187.457031 205.804688 187.457031 205.804688 187.457031 205.808594 C 187.457031 205.804688 187.457031 205.804688 187.457031 205.800781 C 187.46875 205.761719 187.480469 205.722656 187.488281 205.6875 C 187.480469 205.722656 187.46875 205.761719 187.457031 205.800781 " fill-opacity="1" fill-rule="nonzero"/></g></g></g><g clip-path="url(#id13)"><g clip-path="url(#id14)"><g clip-path="url(#id15)"><path fill="#3900aa" d="M 71.21875 225.023438 C 71.214844 225.015625 71.214844 225.015625 71.21875 225.023438 Z M 68.492188 224.96875 C 69.382812 224.246094 70.699219 224.382812 71.421875 225.273438 C 71.339844 225.175781 71.257812 225.074219 71.226562 225.035156 C 71.253906 225.066406 71.3125 225.136719 71.425781 225.273438 C 71.554688 225.433594 71.613281 225.507812 71.628906 225.527344 C 71.605469 225.5 71.515625 225.386719 71.421875 225.277344 C 72.148438 226.167969 72.011719 227.480469 71.121094 228.203125 C 70.226562 228.925781 68.910156 228.789062 68.1875 227.898438 C 67.460938 227.007812 67.597656 225.691406 68.492188 224.96875 Z M 132.523438 119.941406 C 116.449219 117.285156 100.058594 120.554688 86.125 129.253906 C 71.484375 138.390625 61.058594 152.601562 56.761719 169.261719 C 54.121094 179.519531 53.933594 189.9375 56.203125 200.230469 C 58.175781 209.183594 62.046875 217.773438 67.445312 225.230469 C 66.902344 226.179688 66.960938 227.402344 67.691406 228.300781 C 68.636719 229.464844 70.355469 229.644531 71.523438 228.699219 C 72.6875 227.753906 72.867188 226.039062 71.921875 224.875 C 71.234375 224.027344 70.136719 223.703125 69.144531 223.949219 C 57.738281 208.226562 53.972656 188.636719 58.828125 169.796875 C 67.222656 137.207031 99.140625 116.597656 132.128906 122.035156 C 132.367188 122.867188 133.042969 123.546875 133.949219 123.734375 C 135.25 124.007812 136.523438 123.175781 136.796875 121.878906 C 137.070312 120.582031 136.234375 119.308594 134.9375 119.035156 C 133.996094 118.835938 133.066406 119.222656 132.523438 119.941406 " fill-opacity="1" fill-rule="nonzero"/></g></g></g><g clip-path="url(#id16)"><g clip-path="url(#id17)"><g clip-path="url(#id18)"><path fill="#3900aa" d="M 170.617188 218.519531 C 170.609375 218.539062 170.597656 218.554688 170.585938 218.570312 C 170.59375 218.554688 170.609375 218.539062 170.617188 218.519531 Z M 170.578125 218.582031 C 170.566406 218.601562 170.554688 218.621094 170.542969 218.636719 C 170.554688 218.621094 170.566406 218.605469 170.578125 218.582031 Z M 170.515625 218.679688 C 170.511719 218.683594 170.511719 218.683594 170.515625 218.679688 Z M 170.796875 218.238281 C 170.796875 218.234375 170.800781 218.230469 170.804688 218.226562 C 170.800781 218.230469 170.796875 218.234375 170.796875 218.238281 Z M 170.835938 218.171875 C 170.851562 218.148438 170.863281 218.132812 170.867188 218.128906 C 170.863281 218.132812 170.851562 218.148438 170.835938 218.171875 Z M 173.566406 217.757812 C 174.539062 218.375 174.828125 219.664062 174.214844 220.632812 C 173.601562 221.601562 172.3125 221.890625 171.339844 221.277344 C 170.367188 220.664062 170.078125 219.375 170.691406 218.40625 C 170.71875 218.359375 170.742188 218.324219 170.765625 218.289062 C 170.742188 218.324219 170.714844 218.363281 170.691406 218.40625 C 171.304688 217.433594 172.59375 217.144531 173.566406 217.757812 Z M 174.851562 220.824219 C 174.820312 220.871094 174.789062 220.921875 174.753906 220.972656 C 175.558594 219.707031 175.179688 218.023438 173.910156 217.21875 C 172.640625 216.417969 170.953125 216.796875 170.148438 218.0625 C 169.570312 218.976562 169.609375 220.109375 170.152344 220.96875 C 155.796875 240.796875 130.671875 249.949219 106.789062 243.796875 C 87.15625 238.738281 71.300781 223.835938 64.921875 204.632812 C 65.542969 204.042969 65.828125 203.144531 65.585938 202.261719 C 65.234375 200.980469 63.914062 200.226562 62.632812 200.574219 C 61.351562 200.921875 60.597656 202.246094 60.945312 203.523438 C 61.203125 204.460938 61.984375 205.113281 62.886719 205.261719 C 65.964844 214.558594 71.230469 223.058594 78.207031 229.960938 C 85.957031 237.628906 95.660156 243.125 106.257812 245.855469 C 131.007812 252.234375 157.046875 242.742188 171.910156 222.179688 C 172.984375 222.398438 174.132812 221.953125 174.753906 220.972656 C 174.671875 221.105469 174.589844 221.234375 174.550781 221.300781 C 174.582031 221.25 174.644531 221.148438 174.753906 220.972656 C 174.792969 220.914062 174.824219 220.867188 174.851562 220.824219 " fill-opacity="1" fill-rule="nonzero"/></g></g></g><g clip-path="url(#id19)"><g clip-path="url(#id20)"><g clip-path="url(#id21)"><path fill="#3900aa" d="M 62.558594 171.636719 C 61.445312 171.34375 60.78125 170.203125 61.070312 169.09375 C 61.363281 167.984375 62.503906 167.316406 63.617188 167.609375 C 64.730469 167.902344 65.394531 169.042969 65.105469 170.152344 C 65.175781 169.875 65.25 169.597656 65.105469 170.152344 C 65.058594 170.320312 65.035156 170.414062 65.027344 170.453125 C 65.039062 170.402344 65.070312 170.277344 65.105469 170.152344 C 64.8125 171.265625 63.671875 171.929688 62.558594 171.636719 Z M 136.839844 127.152344 C 137.136719 125.859375 136.332031 124.570312 135.035156 124.273438 C 134.09375 124.054688 133.15625 124.425781 132.597656 125.140625 C 117.824219 122.476562 102.683594 125.246094 89.714844 133.046875 C 76.839844 140.792969 67.347656 152.753906 62.769531 166.925781 C 61.691406 167.050781 60.746094 167.820312 60.453125 168.933594 C 60.070312 170.382812 60.945312 171.875 62.394531 172.253906 C 63.847656 172.636719 65.339844 171.765625 65.722656 170.316406 C 66 169.257812 65.609375 168.183594 64.816406 167.527344 C 73.992188 139.207031 102.796875 121.945312 132.171875 127.226562 C 132.394531 128.058594 133.058594 128.742188 133.957031 128.949219 C 135.25 129.25 136.542969 128.445312 136.839844 127.152344 " fill-opacity="1" fill-rule="nonzero"/></g></g></g><g clip-path="url(#id22)"><g clip-path="url(#id23)"><g clip-path="url(#id24)"><path fill="#3900aa" d="M 88.71875 143.734375 C 88.726562 143.722656 88.726562 143.722656 88.71875 143.734375 Z M 88.695312 143.75 C 88.660156 143.78125 88.597656 143.832031 88.492188 143.917969 C 88.574219 143.851562 88.652344 143.785156 88.695312 143.75 Z M 88.449219 143.953125 C 88.378906 144.007812 88.328125 144.050781 88.292969 144.082031 C 88.335938 144.046875 88.390625 144 88.449219 143.953125 Z M 88.277344 144.09375 C 88.261719 144.105469 88.246094 144.117188 88.238281 144.125 C 88.25 144.117188 88.261719 144.105469 88.277344 144.09375 Z M 88.222656 144.136719 C 88.210938 144.148438 88.210938 144.144531 88.222656 144.136719 Z M 88.761719 141.007812 C 89.488281 141.894531 89.359375 143.207031 88.46875 143.9375 C 87.582031 144.664062 86.265625 144.53125 85.535156 143.644531 C 84.808594 142.753906 84.9375 141.441406 85.824219 140.714844 C 86.714844 139.984375 88.03125 140.117188 88.761719 141.007812 Z M 169.558594 155.558594 C 161.789062 143.351562 149.898438 134.691406 135.832031 131.070312 C 127.089844 128.816406 118.210938 128.660156 109.441406 130.597656 C 101.945312 132.257812 94.757812 135.480469 88.5 139.96875 C 87.546875 139.421875 86.316406 139.484375 85.421875 140.21875 C 84.257812 141.167969 84.089844 142.886719 85.042969 144.046875 C 85.992188 145.207031 87.714844 145.378906 88.875 144.429688 C 89.714844 143.742188 90.035156 142.652344 89.785156 141.660156 C 103.015625 132.164062 119.453125 129.046875 135.300781 133.128906 C 148.820312 136.613281 160.257812 144.933594 167.734375 156.664062 C 167.273438 157.382812 167.21875 158.328125 167.664062 159.125 C 168.316406 160.28125 169.78125 160.695312 170.9375 160.046875 C 172.097656 159.398438 172.507812 157.933594 171.859375 156.777344 C 171.382812 155.929688 170.46875 155.484375 169.558594 155.558594 " fill-opacity="1" fill-rule="nonzero"/></g></g></g><g clip-path="url(#id25)"><g clip-path="url(#id26)"><g clip-path="url(#id27)"><path fill="#3900aa" d="M 108.933594 232.746094 C 108.9375 232.746094 108.949219 232.75 108.96875 232.753906 C 108.953125 232.75 108.9375 232.746094 108.933594 232.746094 Z M 108.992188 232.757812 C 109.023438 232.765625 109.070312 232.777344 109.132812 232.792969 C 109.078125 232.78125 109.027344 232.765625 108.992188 232.757812 Z M 109.5 232.878906 C 109.511719 232.882812 109.523438 232.886719 109.53125 232.886719 C 109.523438 232.886719 109.511719 232.882812 109.5 232.878906 Z M 109.5625 232.894531 C 109.574219 232.898438 109.574219 232.898438 109.5625 232.894531 Z M 106.738281 234.359375 C 107.003906 233.242188 108.128906 232.550781 109.246094 232.820312 C 109.246094 232.820312 109.246094 232.816406 109.242188 232.816406 C 109.246094 232.816406 109.246094 232.820312 109.246094 232.820312 C 109.296875 232.832031 109.335938 232.839844 109.375 232.851562 C 109.332031 232.839844 109.292969 232.828125 109.246094 232.820312 C 110.367188 233.085938 111.058594 234.210938 110.792969 235.328125 C 110.523438 236.445312 109.398438 237.136719 108.28125 236.871094 C 107.164062 236.601562 106.46875 235.476562 106.738281 234.359375 Z M 108.132812 237.492188 C 109.59375 237.839844 111.066406 236.9375 111.414062 235.476562 C 111.761719 234.019531 110.855469 232.546875 109.398438 232.199219 C 108.347656 231.949219 107.292969 232.34375 106.652344 233.128906 C 81.824219 225.230469 67.128906 199.101562 73.691406 173.625 C 78.230469 156.015625 91.777344 142.574219 109.324219 138.070312 C 109.867188 138.726562 110.742188 139.074219 111.636719 138.90625 C 112.941406 138.65625 113.792969 137.398438 113.542969 136.09375 C 113.292969 134.792969 112.035156 133.9375 110.730469 134.1875 C 109.769531 134.371094 109.054688 135.101562 108.84375 135.996094 C 100.414062 138.164062 92.644531 142.417969 86.265625 148.390625 C 79.132812 155.070312 74.070312 163.613281 71.628906 173.09375 C 64.777344 199.6875 80.128906 226.960938 106.0625 235.175781 C 106.199219 236.269531 106.996094 237.21875 108.132812 237.492188 " fill-opacity="1" fill-rule="nonzero"/></g></g></g><g clip-path="url(#id28)"><g clip-path="url(#id29)"><g clip-path="url(#id30)"><path fill="#3900aa" d="M 78.847656 193.089844 C 78.847656 193.09375 78.847656 193.097656 78.851562 193.101562 C 78.847656 193.097656 78.847656 193.09375 78.847656 193.089844 Z M 78.925781 193.46875 C 78.929688 193.492188 78.933594 193.511719 78.9375 193.53125 C 78.933594 193.511719 78.929688 193.488281 78.925781 193.46875 Z M 78.964844 193.65625 C 78.972656 193.6875 78.976562 193.707031 78.976562 193.71875 C 78.976562 193.707031 78.96875 193.683594 78.964844 193.65625 Z M 76.445312 191.785156 C 77.570312 191.550781 78.675781 192.277344 78.910156 193.398438 C 79.144531 194.523438 78.421875 195.628906 77.296875 195.859375 C 76.171875 196.09375 75.066406 195.371094 74.832031 194.246094 C 74.59375 193.121094 75.320312 192.015625 76.445312 191.785156 Z M 76.582031 174.371094 C 75.125 180.027344 74.746094 185.777344 75.449219 191.503906 C 74.496094 192.089844 73.964844 193.222656 74.203125 194.375 C 74.171875 194.21875 74.140625 194.066406 74.125 193.992188 C 74.136719 194.050781 74.160156 194.167969 74.203125 194.375 C 74.246094 194.582031 74.269531 194.699219 74.285156 194.753906 C 74.269531 194.683594 74.234375 194.53125 74.203125 194.375 C 74.511719 195.84375 75.957031 196.792969 77.425781 196.488281 C 78.898438 196.183594 79.84375 194.738281 79.539062 193.269531 C 79.320312 192.226562 78.527344 191.449219 77.558594 191.191406 C 76.898438 185.75 77.261719 180.28125 78.648438 174.902344 C 84.75 151.210938 109.023438 136.910156 132.75 143.023438 C 135.824219 143.816406 138.792969 144.933594 141.613281 146.347656 C 141.585938 147.191406 142.007812 148.019531 142.785156 148.484375 C 143.925781 149.164062 145.402344 148.789062 146.082031 147.652344 C 146.757812 146.511719 146.382812 145.039062 145.242188 144.359375 C 144.398438 143.855469 143.375 143.933594 142.621094 144.464844 C 139.652344 142.972656 136.523438 141.796875 133.28125 140.964844 C 108.414062 134.554688 82.980469 149.542969 76.582031 174.371094 " fill-opacity="1" fill-rule="nonzero"/></g></g></g><g clip-path="url(#id31)"><g clip-path="url(#id32)"><g clip-path="url(#id33)"><path fill="#3900aa" d="M 141.277344 218.839844 C 141.25 218.855469 141.226562 218.871094 141.210938 218.882812 C 141.226562 218.871094 141.25 218.855469 141.277344 218.839844 Z M 141.542969 218.667969 C 141.566406 218.652344 141.589844 218.636719 141.609375 218.625 C 141.589844 218.636719 141.566406 218.652344 141.542969 218.667969 Z M 141.671875 218.585938 C 141.742188 218.539062 141.730469 218.546875 141.671875 218.585938 Z M 144.324219 219.355469 C 144.945312 220.320312 144.667969 221.609375 143.703125 222.230469 C 142.738281 222.851562 141.445312 222.574219 140.820312 221.609375 C 140.195312 220.644531 140.476562 219.355469 141.441406 218.734375 C 141.429688 218.738281 141.417969 218.746094 141.40625 218.753906 C 141.417969 218.746094 141.429688 218.742188 141.441406 218.734375 C 141.460938 218.71875 141.476562 218.710938 141.492188 218.699219 C 141.476562 218.710938 141.460938 218.722656 141.441406 218.730469 C 142.40625 218.109375 143.699219 218.390625 144.324219 219.355469 Z M 144.050781 222.769531 C 145.3125 221.957031 145.675781 220.269531 144.859375 219.007812 C 144.046875 217.746094 142.355469 217.382812 141.09375 218.195312 C 140.195312 218.773438 139.753906 219.796875 139.871094 220.789062 C 131.234375 225.308594 121.394531 226.457031 111.886719 224.007812 C 90.890625 218.597656 78.203125 197.140625 83.601562 176.179688 C 88.609375 156.75 107.441406 144.335938 127.09375 147.105469 C 127.335938 147.90625 127.992188 148.5625 128.871094 148.757812 C 130.167969 149.046875 131.453125 148.234375 131.742188 146.941406 C 132.03125 145.644531 131.214844 144.363281 129.917969 144.074219 C 128.953125 143.855469 127.996094 144.253906 127.449219 145.003906 C 106.707031 142.050781 86.820312 155.140625 81.539062 175.648438 C 75.84375 197.746094 89.21875 220.363281 111.355469 226.066406 C 121.40625 228.65625 131.804688 227.433594 140.921875 222.644531 C 141.8125 223.316406 143.0625 223.40625 144.050781 222.769531 " fill-opacity="1" fill-rule="nonzero"/></g></g></g><g clip-path="url(#id34)"><g clip-path="url(#id35)"><g clip-path="url(#id36)"><path fill="#3900aa" d="M 153.152344 196.488281 C 153.148438 196.496094 153.148438 196.503906 153.144531 196.515625 C 153.148438 196.503906 153.148438 196.496094 153.152344 196.488281 Z M 153.132812 196.558594 C 153.117188 196.609375 153.097656 196.671875 153.078125 196.746094 C 153.101562 196.660156 153.117188 196.601562 153.132812 196.558594 Z M 152.980469 197.058594 C 152.980469 197.0625 152.980469 197.066406 152.980469 197.070312 C 152.980469 197.066406 152.980469 197.0625 152.980469 197.058594 Z M 152.96875 197.109375 C 152.964844 197.117188 152.964844 197.117188 152.96875 197.109375 Z M 155.652344 195.402344 C 156.753906 195.730469 157.382812 196.890625 157.054688 197.992188 C 156.726562 199.09375 155.5625 199.71875 154.460938 199.390625 C 153.359375 199.058594 152.730469 197.898438 153.058594 196.796875 C 153.390625 195.699219 154.550781 195.070312 155.652344 195.402344 Z M 157.667969 198.175781 C 158.097656 196.738281 157.277344 195.21875 155.835938 194.789062 C 154.398438 194.359375 152.878906 195.179688 152.445312 196.613281 C 152.144531 197.621094 152.460938 198.664062 153.167969 199.347656 C 149.078125 208.960938 140.710938 216.234375 130.5625 218.972656 C 130.03125 218.332031 129.183594 217.984375 128.308594 218.132812 C 126.996094 218.355469 126.117188 219.59375 126.34375 220.902344 C 126.566406 222.210938 127.808594 223.089844 129.117188 222.867188 C 130.101562 222.699219 130.84375 221.957031 131.054688 221.042969 C 141.886719 218.144531 150.820312 210.378906 155.160156 200.109375 C 156.292969 200.070312 157.324219 199.320312 157.667969 198.175781 " fill-opacity="1" fill-rule="nonzero"/></g></g></g><g clip-path="url(#id37)"><g clip-path="url(#id38)"><g clip-path="url(#id39)"><path fill="#3900aa" d="M 102.898438 213.3125 C 102.894531 213.3125 102.894531 213.308594 102.894531 213.308594 C 102.894531 213.308594 102.894531 213.3125 102.898438 213.3125 Z M 100.984375 217.023438 C 100.003906 216.421875 99.699219 215.136719 100.304688 214.15625 C 100.90625 213.183594 102.191406 212.878906 103.171875 213.480469 C 103.066406 213.414062 102.964844 213.351562 102.914062 213.320312 C 102.953125 213.34375 103.03125 213.394531 103.171875 213.480469 C 103.324219 213.574219 103.40625 213.621094 103.4375 213.644531 C 103.394531 213.617188 103.285156 213.550781 103.171875 213.480469 C 104.152344 214.082031 104.457031 215.367188 103.851562 216.34375 C 103.25 217.320312 101.964844 217.625 100.984375 217.023438 Z M 87.609375 183.011719 C 88.390625 182.738281 89.011719 182.0625 89.171875 181.183594 C 89.410156 179.878906 88.542969 178.628906 87.238281 178.390625 C 85.933594 178.152344 84.679688 179.015625 84.441406 180.320312 C 84.261719 181.296875 84.707031 182.246094 85.492188 182.761719 C 84.40625 195.011719 89.6875 207.089844 99.421875 214.648438 C 99.175781 215.75 99.632812 216.941406 100.648438 217.566406 C 100.515625 217.484375 100.382812 217.402344 100.320312 217.363281 C 100.367188 217.394531 100.46875 217.457031 100.648438 217.566406 C 100.84375 217.6875 100.949219 217.753906 100.992188 217.777344 C 100.9375 217.746094 100.792969 217.65625 100.648438 217.566406 C 101.929688 218.355469 103.609375 217.957031 104.398438 216.679688 C 105.183594 215.402344 104.785156 213.722656 103.507812 212.9375 C 102.609375 212.386719 101.519531 212.417969 100.671875 212.921875 C 91.5625 205.816406 86.609375 194.496094 87.609375 183.011719 " fill-opacity="1" fill-rule="nonzero"/></g></g></g><g fill="#3900aa" fill-opacity="1"><g transform="translate(95.07468, 189.906828)"><g><path d="M 12.035156 0 L 12.035156 -16.753906 L 19.605469 -16.753906 L 19.605469 -20.460938 L 0.503906 -20.460938 L 0.503906 -16.753906 L 8.074219 -16.753906 L 8.074219 0 Z M 12.035156 0 "/></g></g></g><g fill="#3900aa" fill-opacity="1"><g transform="translate(115.17396, 189.906828)"><g><path d="M 17.132812 0 L 17.132812 -3.707031 L 5.324219 -3.707031 L 5.324219 -8.703125 L 16.199219 -8.703125 L 16.199219 -12.210938 L 5.324219 -12.210938 L 5.324219 -16.753906 L 17.082031 -16.753906 L 17.082031 -20.460938 L 1.386719 -20.460938 L 1.386719 0 Z M 17.132812 0 "/></g></g></g><g fill="#3900aa" fill-opacity="1"><g transform="translate(133.306184, 189.906828)"><g><path d="M 12.515625 0.328125 C 15.390625 0.328125 18.140625 -0.429688 20.257812 -1.589844 L 18.644531 -4.917969 C 16.675781 -3.835938 14.53125 -3.378906 12.515625 -3.378906 C 8.199219 -3.378906 5.070312 -6.054688 5.070312 -10.167969 L 5.070312 -10.21875 C 5.070312 -14.507812 8.125 -17.105469 12.515625 -17.105469 C 14.683594 -17.105469 16.777344 -16.574219 18.644531 -15.542969 L 20.257812 -18.871094 C 18.066406 -20.082031 15.289062 -20.816406 12.515625 -20.816406 C 5.550781 -20.816406 1.035156 -16.550781 1.035156 -10.21875 L 1.035156 -10.167969 C 1.035156 -3.859375 5.601562 0.328125 12.515625 0.328125 Z M 12.515625 0.328125 "/></g></g></g><g fill="#3900aa" fill-opacity="1"><g transform="translate(154.439426, 189.906828)"><g><path d="M 16.527344 -4.164062 L 6.9375 -20.460938 L 1.386719 -20.460938 L 1.386719 0 L 5.324219 0 L 5.324219 -16.574219 L 15.035156 0 L 20.488281 0 L 20.488281 -20.460938 L 16.527344 -20.460938 Z M 16.527344 -4.164062 "/></g></g></g><g fill="#3900aa" fill-opacity="1"><g transform="translate(176.278791, 189.906828)"><g><path d="M 12.664062 0.328125 C 19.730469 0.328125 24.296875 -4.113281 24.296875 -10.242188 L 24.296875 -10.269531 C 24.296875 -16.398438 19.730469 -20.816406 12.664062 -20.816406 C 5.601562 -20.816406 1.035156 -16.398438 1.035156 -10.269531 L 1.035156 -10.242188 C 1.035156 -4.113281 5.601562 0.328125 12.664062 0.328125 Z M 12.664062 -3.378906 C 8.199219 -3.378906 5.070312 -6.082031 5.070312 -10.21875 L 5.070312 -10.269531 C 5.070312 -14.457031 8.125 -17.105469 12.664062 -17.105469 C 17.105469 -17.105469 20.234375 -14.40625 20.234375 -10.269531 L 20.234375 -10.21875 C 20.234375 -6.082031 17.132812 -3.378906 12.664062 -3.378906 Z M 12.664062 -3.378906 "/></g></g></g><g fill="#3900aa" fill-opacity="1"><g transform="translate(201.598328, 189.906828)"><g/></g></g><g fill="#3900aa" fill-opacity="1"><g transform="translate(206.490745, 189.906828)"><g><path d="M 15.363281 -8.226562 C 18.039062 -9.183594 19.425781 -11.378906 19.425781 -14.203125 L 19.425781 -14.230469 C 19.425781 -17.863281 16.980469 -20.460938 12.085938 -20.460938 L 1.386719 -20.460938 L 1.386719 0 L 5.324219 0 L 5.324219 -7.695312 L 11.429688 -7.695312 L 16.171875 0 L 20.511719 0 Z M 11.730469 -16.777344 C 13.925781 -16.777344 15.363281 -15.996094 15.363281 -13.925781 L 15.363281 -13.902344 C 15.363281 -11.808594 13.925781 -10.949219 11.730469 -10.949219 L 5.324219 -10.949219 L 5.324219 -16.777344 Z M 11.730469 -16.777344 "/></g></g></g><g fill="#3900aa" fill-opacity="1"><g transform="translate(227.346583, 189.906828)"><g><path d="M 5.347656 0 L 5.347656 -20.460938 L 1.363281 -20.460938 L 1.363281 0 Z M 5.347656 0 "/></g></g></g><g fill="#3900aa" fill-opacity="1"><g transform="translate(234.054743, 189.906828)"><g><path d="M 23.109375 0 L 14.054688 -20.460938 L 9.335938 -20.460938 L 0.351562 0 L 4.515625 0 L 6.710938 -5.199219 L 16.703125 -5.199219 L 18.921875 0 Z M 15.265625 -8.601562 L 8.175781 -8.601562 L 11.707031 -16.804688 Z M 15.265625 -8.601562 "/></g></g></g><g fill="#3900aa" fill-opacity="1"><g transform="translate(257.48288, 189.906828)"><g/></g></g><g fill="#3900aa" fill-opacity="1"><g transform="translate(262.375297, 189.906828)"><g><path d="M 9.6875 0.328125 C 15.289062 0.328125 18.59375 -1.792969 18.59375 -5.675781 L 18.59375 -5.726562 C 18.59375 -9.183594 16.675781 -10.773438 10.421875 -12.3125 C 6.761719 -13.21875 5.675781 -13.875 5.675781 -15.113281 L 5.675781 -15.164062 C 5.703125 -16.398438 7.0625 -17.207031 9.863281 -17.207031 C 12.1875 -17.207031 14.859375 -16.601562 16.476562 -15.644531 L 18.140625 -18.949219 C 16.222656 -20.058594 13.070312 -20.816406 9.964844 -20.816406 C 4.71875 -20.816406 1.664062 -18.644531 1.664062 -15.085938 L 1.664062 -15.035156 C 1.664062 -11.453125 3.910156 -9.914062 8.882812 -8.703125 C 12.96875 -7.695312 14.558594 -7.089844 14.558594 -5.675781 L 14.558594 -5.652344 C 14.558594 -4.0625 12.613281 -3.304688 9.511719 -3.304688 C 6.964844 -3.304688 4.515625 -3.808594 2.597656 -4.894531 L 0.933594 -1.5625 C 2.953125 -0.402344 6.15625 0.328125 9.6875 0.328125 Z M 9.6875 0.328125 "/></g></g></g><g fill="#3900aa" fill-opacity="1"><g transform="translate(282.096292, 189.906828)"><g><path d="M 3.707031 0.277344 C 4.996094 0.277344 6.054688 -0.328125 6.054688 -1.589844 C 6.054688 -2.726562 5.097656 -3.429688 3.707031 -3.429688 C 2.347656 -3.429688 1.363281 -2.726562 1.363281 -1.589844 C 1.363281 -0.328125 2.421875 0.277344 3.707031 0.277344 Z M 3.707031 0.277344 "/></g></g></g><g fill="#3900aa" fill-opacity="1"><g transform="translate(289.535787, 189.906828)"><g><path d="M 16.953125 0 L 16.953125 -3.707031 L 5.347656 -3.707031 L 5.347656 -20.460938 L 1.363281 -20.460938 L 1.363281 0 Z M 16.953125 0 "/></g></g></g></svg>