<svg width="1600" height="1066" viewBox="0 0 1600 1066" fill="none" xmlns="http://www.w3.org/2000/svg">
  <defs>
    <linearGradient id="bgPanel" x1="215" y1="154" x2="1344" y2="927" gradientUnits="userSpaceOnUse">
      <stop stop-color="#FBF7F0"/>
      <stop offset="1" stop-color="#E7DECF"/>
    </linearGradient>
    <linearGradient id="glassCard" x1="0" y1="0" x2="1" y2="1">
      <stop stop-color="white" stop-opacity="0.88"/>
      <stop offset="1" stop-color="white" stop-opacity="0.22"/>
    </linearGradient>
    <linearGradient id="darkGlass" x1="0" y1="0" x2="1" y2="1">
      <stop stop-color="#122131" stop-opacity="0.98"/>
      <stop offset="1" stop-color="#0C1721" stop-opacity="0.9"/>
    </linearGradient>
    <linearGradient id="signal" x1="603" y1="278" x2="1029" y2="743" gradientUnits="userSpaceOnUse">
      <stop stop-color="#0F7A74"/>
      <stop offset="1" stop-color="#103B59"/>
    </linearGradient>
    <radialGradient id="glowA" cx="0" cy="0" r="1" gradientUnits="userSpaceOnUse" gradientTransform="translate(1018 302) rotate(90) scale(208)">
      <stop stop-color="#0F7A74" stop-opacity="0.28"/>
      <stop offset="1" stop-color="#0F7A74" stop-opacity="0"/>
    </radialGradient>
    <radialGradient id="glowB" cx="0" cy="0" r="1" gradientUnits="userSpaceOnUse" gradientTransform="translate(530 750) rotate(90) scale(238)">
      <stop stop-color="#BE9058" stop-opacity="0.26"/>
      <stop offset="1" stop-color="#BE9058" stop-opacity="0"/>
    </radialGradient>
    <filter id="blurA" x="0" y="0" width="1600" height="1066" filterUnits="userSpaceOnUse" color-interpolation-filters="sRGB">
      <feGaussianBlur stdDeviation="38"/>
    </filter>
    <filter id="shadowA" x="138" y="82" width="1324" height="902" filterUnits="userSpaceOnUse" color-interpolation-filters="sRGB">
      <feDropShadow dx="0" dy="38" stdDeviation="44" flood-color="#0F1A25" flood-opacity="0.16"/>
    </filter>
    <filter id="shadowB" x="367" y="179" width="846" height="708" filterUnits="userSpaceOnUse" color-interpolation-filters="sRGB">
      <feDropShadow dx="0" dy="24" stdDeviation="28" flood-color="#0F1A25" flood-opacity="0.18"/>
    </filter>
  </defs>

  <g filter="url(#blurA)">
    <circle cx="1040" cy="312" r="188" fill="url(#glowA)"/>
    <circle cx="546" cy="760" r="212" fill="url(#glowB)"/>
  </g>

  <g filter="url(#shadowA)">
    <rect x="214" y="158" width="1172" height="750" rx="42" fill="url(#bgPanel)"/>
    <rect x="214.75" y="158.75" width="1170.5" height="748.5" rx="41.25" stroke="#F5EFE6" stroke-opacity="0.72" stroke-width="1.5"/>
  </g>

  <path d="M454 547C550 454 650 405 754 399C864 391 966 441 1062 543" stroke="#103B59" stroke-opacity="0.14" stroke-width="12" stroke-linecap="round"/>
  <path d="M429 618C560 673 681 693 793 677C931 657 1049 589 1146 472" stroke="#0F7A74" stroke-opacity="0.18" stroke-width="10" stroke-linecap="round"/>

  <g filter="url(#shadowB)">
    <rect x="454" y="223" width="676" height="620" rx="38" fill="url(#darkGlass)"/>
    <rect x="454.75" y="223.75" width="674.5" height="618.5" rx="37.25" stroke="white" stroke-opacity="0.08" stroke-width="1.5"/>
  </g>

  <rect x="522" y="281" width="228" height="76" rx="22" fill="white" fill-opacity="0.08"/>
  <rect x="522" y="388" width="346" height="92" rx="26" fill="white" fill-opacity="0.06"/>
  <rect x="522" y="514" width="274" height="70" rx="22" fill="white" fill-opacity="0.06"/>
  <rect x="522" y="615" width="418" height="96" rx="28" fill="white" fill-opacity="0.07"/>

  <circle cx="955" cy="429" r="108" fill="url(#signal)"/>
  <circle cx="955" cy="429" r="82" fill="white" fill-opacity="0.12"/>
  <circle cx="955" cy="429" r="26" fill="#F7FBFF"/>
  <path d="M932 430H978" stroke="#0F7A74" stroke-width="8" stroke-linecap="round"/>
  <path d="M955 407V453" stroke="#0F7A74" stroke-width="8" stroke-linecap="round"/>

  <path d="M813 441C854 441 884 439 922 434" stroke="#F7FBFF" stroke-opacity="0.44" stroke-width="6" stroke-linecap="round"/>
  <path d="M950 529C948 573 940 609 919 652" stroke="#F7FBFF" stroke-opacity="0.38" stroke-width="6" stroke-linecap="round"/>
  <path d="M1037 398C1086 377 1122 349 1153 304" stroke="#F7FBFF" stroke-opacity="0.32" stroke-width="6" stroke-linecap="round"/>

  <rect x="1032" y="238" width="198" height="124" rx="30" fill="url(#glassCard)"/>
  <rect x="1114" y="717" width="212" height="126" rx="30" fill="url(#glassCard)"/>
  <rect x="274" y="654" width="202" height="136" rx="30" fill="url(#glassCard)"/>

  <circle cx="1081" cy="286" r="18" fill="#103B59"/>
  <circle cx="1119" cy="286" r="18" fill="#0F7A74"/>
  <circle cx="1157" cy="286" r="18" fill="#BE9058"/>
  <rect x="1068" y="323" width="128" height="12" rx="6" fill="#103B59" fill-opacity="0.28"/>
  <rect x="1068" y="348" width="92" height="12" rx="6" fill="#0F7A74" fill-opacity="0.22"/>

  <circle cx="1170" cy="760" r="18" fill="#103B59"/>
  <rect x="1204" y="751" width="90" height="18" rx="9" fill="#103B59" fill-opacity="0.2"/>
  <rect x="1168" y="789" width="122" height="14" rx="7" fill="#0F7A74" fill-opacity="0.22"/>

  <circle cx="330" cy="711" r="18" fill="#BE9058"/>
  <rect x="364" y="702" width="72" height="18" rx="9" fill="#103B59" fill-opacity="0.22"/>
  <rect x="304" y="741" width="118" height="14" rx="7" fill="#0F7A74" fill-opacity="0.22"/>

  <circle cx="740" cy="267" r="9" fill="#BE9058"/>
  <circle cx="522" cy="747" r="11" fill="#0F7A74"/>
  <circle cx="1163" cy="438" r="10" fill="#103B59"/>
</svg>
